# xmcd CD database file
#
# Track frame offsets:
#	150
#	10810
#	42865
#	54565
#	69095
#	84895
#	116330
#	127185
#	147392
#	169102
#	193037
#	217682
#	236697
#	254612
#	274037
#	298067
#
# Disc length: 4289 seconds
#
# Revision: 0
# Processed by: cddbd v1.5.2PL0 Copyright (c) Steve Scherf et al.
# Submitted via: CDex 1.51
#
DISCID=e410bf10
DTITLE=Baby Face Willette - Behind The 8 ball , Mo-Rock
DYEAR=1964
DGENRE=Jazz
TTITLE0=Behind The 8 Ball
TTITLE1=Song Of The Universe
TTITLE2=Amen
TTITLE3=Tacos Joe
TTITLE4=Roll'em Pete
TTITLE5=Just A Closer Walk
TTITLE6=James Infirmary
TTITLE7=Sinnin' Sam
TTITLE8=Mo-Rock
TTITLE9=Bantu Penda
TTITLE10=Dad's Theme
TTITLE11=But Not For Me
TTITLE12=Misty
TTITLE13=Unseen And Unknown
TTITLE14=Zip Five
TTITLE15=Sight In Darkness
EXTD=YEAR: 1964
EXTT0=
EXTT1=
EXTT2=
EXTT3=
EXTT4=
EXTT5=
EXTT6=
EXTT7=
EXTT8=
EXTT9=
EXTT10=
EXTT11=
EXTT12=
EXTT13=
EXTT14=
EXTT15=
PLAYORDER=
